<svg xmlns="http://www.w3.org/2000/svg" xmlns:xlink="http://www.w3.org/1999/xlink" width="375" height="570" viewBox="0 0 375 570">
  <defs>
    <clipPath id="clip-path">
      <rect id="cropped_background" width="375" height="570" fill="#fff" stroke="#707070" stroke-width="1"/>
    </clipPath>
    <linearGradient id="linear-gradient" x1="0.5" y1="0.834" x2="0.5" y2="0.051" gradientUnits="objectBoundingBox">
      <stop offset="0" stop-color="#d2d2d2"/>
      <stop offset="1" stop-color="#a1a1a1"/>
    </linearGradient>
    <linearGradient id="linear-gradient-2" x1="0.5" y1="1" x2="0.5" gradientUnits="objectBoundingBox">
      <stop offset="0" stop-color="silver" stop-opacity="0.302"/>
      <stop offset="1" stop-color="#6e7172"/>
    </linearGradient>
    <linearGradient id="linear-gradient-3" x1="-1.456" x2="-1.456" y2="1" gradientUnits="objectBoundingBox">
      <stop offset="0" stop-color="#fff"/>
      <stop offset="0.26" stop-color="#d6d7d7"/>
      <stop offset="0.43" stop-color="#bcbcbc" stop-opacity="0.98"/>
      <stop offset="0.58" stop-color="#9c9e9d" stop-opacity="0.961"/>
      <stop offset="0.72" stop-color="#7d7e7e" stop-opacity="0.922"/>
      <stop offset="0.84" stop-color="#6c6d6d" stop-opacity="0.878"/>
      <stop offset="0.96" stop-color="#4e504f" stop-opacity="0.82"/>
      <stop offset="1" stop-color="#333" stop-opacity="0.8"/>
    </linearGradient>
    <linearGradient id="linear-gradient-4" x1="-0.021" x2="-0.021" y2="1" gradientUnits="objectBoundingBox">
      <stop offset="0" stop-color="#fff"/>
      <stop offset="0.222" stop-color="#dadddc"/>
      <stop offset="0.364" stop-color="#b8bbba" stop-opacity="0.98"/>
      <stop offset="0.525" stop-color="#c1c4c3" stop-opacity="0.961"/>
      <stop offset="0.623" stop-color="#878a89" stop-opacity="0.949"/>
      <stop offset="0.72" stop-color="#696b6b" stop-opacity="0.922"/>
      <stop offset="0.84" stop-color="#444645" stop-opacity="0.878"/>
      <stop offset="0.96" stop-color="#313232" stop-opacity="0.82"/>
      <stop offset="1" stop-color="#252626" stop-opacity="0.8"/>
    </linearGradient>
    <linearGradient id="linear-gradient-5" x1="0.5" x2="0.5" y2="1" gradientUnits="objectBoundingBox">
      <stop offset="0" stop-color="#fff"/>
      <stop offset="0.29" stop-color="#cfd3d2"/>
      <stop offset="0.48" stop-color="#b9bcbb"/>
      <stop offset="0.65" stop-color="#a4a5a5"/>
      <stop offset="0.8" stop-color="#949796"/>
      <stop offset="0.94" stop-color="#787a7a"/>
      <stop offset="1" stop-color="#555656"/>
    </linearGradient>
    <linearGradient id="linear-gradient-6" x1="0.5" x2="0.5" y2="1" gradientUnits="objectBoundingBox">
      <stop offset="0" stop-color="#fff"/>
      <stop offset="0.29" stop-color="#e1e1e1"/>
      <stop offset="0.48" stop-color="#c7cccb"/>
      <stop offset="0.65" stop-color="#aaafad"/>
      <stop offset="0.8" stop-color="#7e8281"/>
      <stop offset="0.94" stop-color="#707070"/>
      <stop offset="1" stop-color="#4b4e4d"/>
    </linearGradient>
    <linearGradient id="linear-gradient-7" x1="0.5" x2="0.5" y2="1" gradientUnits="objectBoundingBox">
      <stop offset="0" stop-color="#fff"/>
      <stop offset="0.26" stop-color="#cfd0d0"/>
      <stop offset="0.43" stop-color="#bbbebd" stop-opacity="0.98"/>
      <stop offset="0.58" stop-color="#b1b4b3" stop-opacity="0.961"/>
      <stop offset="0.72" stop-color="#9a9f9e" stop-opacity="0.922"/>
      <stop offset="0.84" stop-color="#7f8281" stop-opacity="0.878"/>
      <stop offset="0.96" stop-color="#696a6a" stop-opacity="0.82"/>
      <stop offset="1" stop-color="#3f4140" stop-opacity="0.8"/>
    </linearGradient>
    <linearGradient id="linear-gradient-8" x1="0.5" x2="0.5" y2="1" gradientUnits="objectBoundingBox">
      <stop offset="0" stop-color="#f5f1f1"/>
      <stop offset="0.26" stop-color="#dfe1e0"/>
      <stop offset="0.43" stop-color="#dbdddd" stop-opacity="0.98"/>
      <stop offset="0.58" stop-color="#cdd2d1" stop-opacity="0.961"/>
      <stop offset="0.72" stop-color="#b8bbba" stop-opacity="0.922"/>
      <stop offset="0.84" stop-color="#a5a7a6" stop-opacity="0.878"/>
      <stop offset="0.96" stop-color="#9ea2a1" stop-opacity="0.82"/>
      <stop offset="1" stop-color="#747776" stop-opacity="0.8"/>
    </linearGradient>
    <linearGradient id="linear-gradient-9" x1="0.52" y1="0.622" x2="0.492" y2="0.303" gradientUnits="objectBoundingBox">
      <stop offset="0" stop-color="#d2e2ca"/>
      <stop offset="1" stop-color="#9fc9b5"/>
    </linearGradient>
    <linearGradient id="linear-gradient-10" x1="0.468" y1="0.202" x2="0.488" y2="0.454" gradientUnits="objectBoundingBox">
      <stop offset="0" stop-color="#129483"/>
      <stop offset="1" stop-color="#3eaf98"/>
    </linearGradient>
    <linearGradient id="linear-gradient-11" x1="0.555" y1="0.809" x2="0.463" y2="0.359" gradientUnits="objectBoundingBox">
      <stop offset="0" stop-color="#bed5b3"/>
      <stop offset="1" stop-color="#3eaf98" stop-opacity="0.302"/>
    </linearGradient>
    <linearGradient id="linear-gradient-12" x1="0.608" y1="1.114" x2="0.404" y2="0.28" xlink:href="#linear-gradient-11"/>
    <linearGradient id="linear-gradient-13" x1="0.588" y1="0.338" x2="0.468" y2="0.56" gradientUnits="objectBoundingBox">
      <stop offset="0" stop-color="#bed5b3"/>
      <stop offset="1" stop-color="#3eaf98" stop-opacity="0"/>
    </linearGradient>
    <linearGradient id="linear-gradient-14" x1="0.513" y1="0.341" x2="0.462" y2="0.968" gradientUnits="objectBoundingBox">
      <stop offset="0" stop-color="#093f35"/>
      <stop offset="1" stop-color="#1a6357"/>
    </linearGradient>
    <linearGradient id="linear-gradient-15" x1="0.509" y1="0.431" x2="0.426" y2="1.076" gradientUnits="objectBoundingBox">
      <stop offset="0" stop-color="#002a2e"/>
      <stop offset="0.99" stop-color="#075649"/>
    </linearGradient>
    <linearGradient id="linear-gradient-16" x1="0.568" y1="0.364" x2="0.449" y2="1.213" xlink:href="#linear-gradient-15"/>
  </defs>
  <g id="Blue_mountain" clip-path="url(#clip-path)">
    <g id="a" transform="translate(-323.382)">
      <g id="Blue_mountains" data-name="Blue mountains" transform="translate(-145.379)">
        <rect id="Rectangle_3" data-name="Rectangle 3" width="853.622" height="569.996" transform="translate(332.895)" fill="url(#linear-gradient)"/>
        <g id="Sky" transform="translate(0 0.199)">
          <rect id="Rectangle_10" data-name="Rectangle 10" width="1012.97" height="569.797" fill="url(#linear-gradient-2)"/>
        </g>
        <g id="Cloud_1" transform="translate(223.219 29.834)">
          <path id="Tracé_433" data-name="Tracé 433" d="M243.861,84.8a6.283,6.283,0,0,0,.633-.032,9.064,9.064,0,0,0,9.65,1.657,2.849,2.849,0,0,0,4.052-1.931,2.891,2.891,0,0,0-.047-1.413l.084-.132a10.188,10.188,0,0,0,1.91,2.638c.349,2.411,2.717,3.24,4.458,4.78l6.536,1.319,7.956-.8,5.861-.528,6.062-1.161,6.2,1.287,6.827.306,3.229.4L298.6,86.756,319.078,88.5l9.5-1.176,10.4,2.575,13.8.232,24.554-.934-18.281-5.049L375,80.305l19.647,2.111c-.707.665-5.381,4.22-5.381,4.22-.612-.422,35.111.063,35.2.063a4.648,4.648,0,1,0-3.645-7.529A9.38,9.38,0,0,0,410.726,78a7.027,7.027,0,0,0-6.464-5.472,4.808,4.808,0,0,0-4.408-4.078,9.349,9.349,0,0,0-12.134-10.062,7.84,7.84,0,0,0-11.512-5.36,8.035,8.035,0,0,0-15.22,3.545h-.074a2.7,2.7,0,0,0-5.091.364H355.7a5.7,5.7,0,0,0-10.177,1.413,8.187,8.187,0,0,0-3.335-.7,6.951,6.951,0,0,0-.817.042,10.118,10.118,0,0,0-8.568-6.648,13.77,13.77,0,0,0-24.322-3.807,8.865,8.865,0,0,0-1.509-.137,8.552,8.552,0,0,0-8.046,11.454,9.068,9.068,0,0,0-3.582,2.327A9.534,9.534,0,0,0,281.1,73.489a5.309,5.309,0,0,0-3.767,3.044,10.208,10.208,0,0,0-2.859-5.409V70.66a4.939,4.939,0,0,0-9.275-2.29,10.218,10.218,0,0,0-6.822,5.1,9.027,9.027,0,0,0-12.773-2.933,7.138,7.138,0,0,0-2.263-.2,7.223,7.223,0,0,0,.528,14.425Z" transform="translate(-65.427 -1.994)" opacity="0.2" fill="url(#linear-gradient-3)"/>
          <path id="Tracé_434" data-name="Tracé 434" d="M798.267,145c-.628,0-1.245-.032-1.857-.084a26.559,26.559,0,0,1-28.32,4.854,8.4,8.4,0,0,1-5.6.67,8.262,8.262,0,0,1-6.178-5.867,8.443,8.443,0,0,1,0-4.616l-.248-.385a30.222,30.222,0,0,1-5.61,7.751c-1.024,7.08-7.977,9.5-13.079,14.04L718.152,165.2,694.8,162.867l-17.205-1.53-17.79-3.414-18.165,3.807-20.048.9-9.471,1.155,25.444-12.99-60.105,5.109-27.81-3.445L519.1,160.016l-40.5.686-55.83-4.647,22.86-4.574-18.666-.528-20.993,3.018a5.283,5.283,0,0,1-.866.058l-18.914.992-21.673-5.176s-20.36,4.558-38.778-.354c-26.458-7.059-10.863.691-10.863.691l-46.655.391a13.638,13.638,0,1,1,10.7-22.085,27.492,27.492,0,0,1,29.6-3.44,20.629,20.629,0,0,1,18.993-16.06,14.1,14.1,0,0,1,12.923-11.966,28.191,28.191,0,0,1-.221-3.424A27.435,27.435,0,0,1,376.1,67.494a23.018,23.018,0,0,1,33.8-15.743,23.583,23.583,0,0,1,44.666,10.4l.221.047a7.914,7.914,0,0,1,14.941,1.055l.354.063a16.756,16.756,0,0,1,29.761,4.041,24.185,24.185,0,0,1,9.781-2.058c.813,0,1.615.042,2.4.116A29.693,29.693,0,0,1,537.167,45.9a40.4,40.4,0,0,1,71.389-11.162A25.1,25.1,0,0,1,636.6,67.974a26.633,26.633,0,0,1,10.5,6.827,27.994,27.994,0,0,1,41.773,37.016,15.616,15.616,0,0,1,11.079,8.932,29.835,29.835,0,0,1,8.389-15.875q-.063-.673-.063-1.356a14.492,14.492,0,0,1,27.382-6.627,29.984,29.984,0,0,1,20.017,14.962,26.532,26.532,0,0,1,37.466-8.647,21.209,21.209,0,1,1,5.123,41.785Z" transform="translate(-53.51 -17.783)" opacity="0.5" fill="url(#linear-gradient-4)"/>
          <path id="Tracé_435" data-name="Tracé 435" d="M350.586,154.045a11.9,11.9,0,0,0,1.3-.047,21,21,0,0,0,12.588,4.015,22.222,22.222,0,0,0,7.3-1.219,7.074,7.074,0,0,0,3.724.422,5.483,5.483,0,0,0,4.632-3.694,4.031,4.031,0,0,0-.1-2.39l.168-.227a17.935,17.935,0,0,0,3.941,4.469c.717,4.083,5.6,5.482,9.185,8.093l13.5,2.216,16.4-1.345,12.087-.882,12.5-1.967,12.773,2.179,14.087.528,6.648.67-17.869-7.492,42.208,2.949,19.521-1.989,21.457,4.353,28.45.4,50.649-1.583-37.7-8.515,32.875-6.494,40.5,3.561c-1.462,1.119-11.079,7.122-11.079,7.122-1.266-.717,72.386.105,72.549.105,5.656,0,10.162-4.02,9.5-8.763-.47-3.487-3.825-6.357-8.056-6.859a10.666,10.666,0,0,0-8.969,2.905,21.907,21.907,0,0,0-12.267-3.614,22.76,22.76,0,0,0-8.526,1.63c-1.392-5.1-6.78-8.969-13.323-9.259-.675-3.724-4.437-6.627-9.08-6.9a12.936,12.936,0,0,0,.153-1.978c0-8.731-8.626-15.828-19.268-15.828a23.131,23.131,0,0,0-5.936.765c-1.434-6.12-8-10.747-15.875-10.747a18.992,18.992,0,0,0-7.867,1.672c-2.723-4.448-8.331-7.5-14.809-7.5-9.116,0-16.5,6.036-16.566,13.5l-.153.026a5.7,5.7,0,0,0-5.118-2.775,5.482,5.482,0,0,0-5.376,3.387l-.247.037a12.61,12.61,0,0,0-9.75-4.252c-5.186,0-9.587,2.754-11.153,6.579a20.244,20.244,0,0,0-6.859-1.187c-.57,0-1.129.026-1.688.068-2.675-6.111-9.5-10.619-17.659-11.243-3.656-9.4-14.377-16.2-27.039-16.2-9.529,0-17.938,3.852-23.1,9.766a21.486,21.486,0,0,0-3.105-.232c-9.739,0-17.638,6.478-17.638,14.472a12.087,12.087,0,0,0,1.055,4.9,19.547,19.547,0,0,0-7.386,3.936,22.29,22.29,0,0,0-15.395-4.453c-9.249.659-16.788,6.7-17.79,14.271a14.09,14.09,0,0,0,3.846,11.52,10.832,10.832,0,0,0-7.767,5.149,16.5,16.5,0,0,0-5.9-9.148,6.39,6.39,0,0,0,.047-.78c0-4.616-4.559-8.357-10.178-8.357a10.572,10.572,0,0,0-9.054,4.537,21.075,21.075,0,0,0-14.061,8.621c-3.25-4.495-9.216-7.507-16.044-7.507a21.505,21.505,0,0,0-10.293,2.548,18.093,18.093,0,0,0-4.664-.333c-7.481.433-13.512,5.53-13.817,11.68C335.35,148.315,342.152,154.045,350.586,154.045Z" transform="translate(0.571 24.192)" opacity="0.5" fill="url(#linear-gradient-5)"/>
          <path id="Tracé_436" data-name="Tracé 436" d="M147.665,197.055a11.3,11.3,0,0,0,1.2-.042,19.342,19.342,0,0,0,11.607,3.693,20.347,20.347,0,0,0,6.712-1.108,6.542,6.542,0,0,0,3.435.391,5.045,5.045,0,0,0,4.262-3.4,3.761,3.761,0,0,0-.09-2.2l.158-.2a16.4,16.4,0,0,0,3.629,4.107c.659,3.762,5.16,5.049,8.442,7.455l12.436,2.042,15.1-1.24,11.126-.823,11.507-1.809,11.766,2,12.968.475,6.126.617-16.44-6.89,38.868,2.712L308.474,201l19.758,4.007,26.185.385,46.623-1.457-34.7-7.893,30.284-5.982,37.3,3.282c-1.345,1.055-10.218,6.557-10.218,6.557-1.166-.665,66.66.1,66.809.1,5.209,0,9.359-3.693,8.768-8.067-.438-3.213-3.529-5.856-7.423-6.331a9.839,9.839,0,0,0-8.262,2.675,20.181,20.181,0,0,0-11.3-3.324,20.858,20.858,0,0,0-7.846,1.5c-1.282-4.7-6.241-8.257-12.272-8.526-.623-3.435-4.083-6.1-8.363-6.331a11.565,11.565,0,0,0,.147-1.82c0-8.04-7.946-14.561-17.748-14.561a21.26,21.26,0,0,0-5.466.707c-1.319-5.64-7.386-9.9-14.62-9.9a17.438,17.438,0,0,0-7.244,1.541c-2.5-4.094-7.665-6.912-13.638-6.912-8.389,0-15.195,5.561-15.253,12.436h-.14a5.239,5.239,0,0,0-4.708-2.553,5.054,5.054,0,0,0-4.949,3.118l-.232.032A11.62,11.62,0,0,0,351,149.771c-4.774,0-8.826,2.537-10.267,6.062a18.593,18.593,0,0,0-6.363-1.082q-.786,0-1.551.063c-2.469-5.635-8.737-9.781-16.266-10.357-3.366-8.652-13.237-14.915-24.9-14.915-8.773,0-16.54,3.545-21.277,8.969a20.339,20.339,0,0,0-2.865-.211c-8.969,0-16.234,5.967-16.234,13.323a11.238,11.238,0,0,0,.955,4.516,17.937,17.937,0,0,0-6.79,3.624,20.523,20.523,0,0,0-14.182-4.107c-8.515.607-15.458,6.173-16.382,13.142a13,13,0,0,0,3.54,10.61,9.848,9.848,0,0,0-7.148,4.748,15.226,15.226,0,0,0-5.429-8.442,6.445,6.445,0,0,0,.042-.717c0-4.247-4.22-7.692-9.375-7.692a9.77,9.77,0,0,0-8.336,4.173,19.441,19.441,0,0,0-12.947,7.94c-2.991-4.136-8.489-6.912-14.773-6.912a19.864,19.864,0,0,0-9.5,2.342,16.668,16.668,0,0,0-4.294-.3c-6.89.4-12.446,5.091-12.722,10.752C133.635,191.759,139.9,197.055,147.665,197.055Z" transform="translate(-133.933 56.721)" opacity="0.6" fill="url(#linear-gradient-6)"/>
        </g>
        <g id="Cloud_2" transform="translate(472.747 266.749)">
          <path id="Tracé_449" data-name="Tracé 449" d="M289.712,193.455h.475a6.7,6.7,0,0,0,4.6,1.836,6.621,6.621,0,0,0,2.666-.56,2.111,2.111,0,0,0,1.36.2,2.174,2.174,0,0,0,1.694-1.688,2.3,2.3,0,0,0-.037-1.092l.063-.1a7.974,7.974,0,0,0,1.441,2.042c.263,1.862,2.047,2.5,3.356,3.693l4.933,1.013,5.993-.617,4.416-.4,4.564-.9,4.669.992,5.144.237,2.432.306-6.531-3.424,15.427,1.345,7.134-.908,7.84,1.99,10.393.184,18.5-.723-13.77-3.907L388.479,190l14.773,1.625c-.528.528-4.052,3.256-4.052,3.256-.465-.328,26.446.047,26.506.047a3.6,3.6,0,0,0,.528-7.143,3.456,3.456,0,0,0-3.277,1.324,6.922,6.922,0,0,0-4.485-1.646,6.807,6.807,0,0,0-3.113.744,5.339,5.339,0,0,0-4.87-4.22,3.662,3.662,0,0,0-3.319-3.165,7.252,7.252,0,0,0,.058-.9,7.133,7.133,0,0,0-7.038-7.228,6.862,6.862,0,0,0-2.169.349,5.956,5.956,0,0,0-5.8-4.909,5.768,5.768,0,0,0-2.869.765,6.046,6.046,0,0,0-5.411-3.428,6.131,6.131,0,0,0-6.052,6.173h-.058a2.01,2.01,0,0,0-3.831.279h-.1a4.262,4.262,0,0,0-3.561-1.941,4.307,4.307,0,0,0-4.073,3.005,6.067,6.067,0,0,0-3.129-.528,7.655,7.655,0,0,0-6.452-5.139,10.4,10.4,0,0,0-9.876-7.386,10.267,10.267,0,0,0-8.442,4.469,6.219,6.219,0,0,0-1.134-.105,6.526,6.526,0,0,0-6.411,6.6,6.72,6.72,0,0,0,.38,2.242,6.8,6.8,0,0,0-2.7,1.8,7.055,7.055,0,0,0-5.624-2.037,7.291,7.291,0,0,0-6.5,6.526,7.514,7.514,0,0,0,1.4,5.276,4.026,4.026,0,0,0-2.838,2.353,7.914,7.914,0,0,0-2.153-4.183v-.359a3.773,3.773,0,0,0-3.72-3.82,3.694,3.694,0,0,0-3.306,2.074,7.723,7.723,0,0,0-5.133,3.941,6.784,6.784,0,0,0-5.861-3.429,6.653,6.653,0,0,0-3.762,1.161,5.365,5.365,0,0,0-1.7-.147,5.593,5.593,0,0,0,.391,11.158Z" transform="translate(-284.252 -159.933)" opacity="0.6" fill="url(#linear-gradient-7)"/>
        </g>
        <g id="Cloud__3" data-name="Cloud _3" transform="translate(745.552 176.942)">
          <path id="Tracé_462" data-name="Tracé 462" d="M454.127,147.648a5.48,5.48,0,0,0,.591-.032,8.289,8.289,0,0,0,9.022,1.583,2.638,2.638,0,0,0,1.688.243,2.7,2.7,0,0,0,2.111-2.111,2.779,2.779,0,0,0-.047-1.356c.031-.042.052-.084.079-.126a9.9,9.9,0,0,0,1.788,2.532c.327,2.316,2.543,3.105,4.168,4.595l6.12,1.255,7.439-.765,5.482-.5,5.666-1.113,5.8,1.234,6.384.3,3.018.375L505.3,149.53,524.45,151.2l8.853-1.129,9.734,2.469,12.9.226,22.961-.9L561.8,147.019l14.9-3.693,18.365,2.021c-.659.633-5.028,4.041-5.028,4.041-.575-.412,32.827.058,32.9.058a4.469,4.469,0,0,0,.659-8.869,4.283,4.283,0,0,0-4.067,1.646,8.589,8.589,0,0,0-9.429-1.129,6.627,6.627,0,0,0-6.041-5.249,4.543,4.543,0,0,0-4.115-3.915,9.643,9.643,0,0,0,.068-1.119,8.863,8.863,0,0,0-8.721-8.943,8.559,8.559,0,0,0-2.691.438,7.386,7.386,0,0,0-7.2-6.1,7.174,7.174,0,0,0-3.565.949,7.5,7.5,0,0,0-6.717-4.257,7.614,7.614,0,0,0-7.513,7.66h-.068a2.5,2.5,0,0,0-4.748.349h-.116a5.275,5.275,0,0,0-4.421-2.411,5.35,5.35,0,0,0-5.055,3.736,7.538,7.538,0,0,0-3.119-.675,7.349,7.349,0,0,0-.765.042,9.5,9.5,0,0,0-8.009-6.378,12.911,12.911,0,0,0-12.271-9.174,12.757,12.757,0,0,0-10.477,5.54,7.77,7.77,0,0,0-1.408-.132,8.114,8.114,0,0,0-8,8.209,8.333,8.333,0,0,0,.475,2.781,8.442,8.442,0,0,0-3.345,2.237,8.78,8.78,0,0,0-6.985-2.532,9.059,9.059,0,0,0-8.067,8.1,9.317,9.317,0,0,0,1.746,6.536,5.017,5.017,0,0,0-3.524,2.923,9.856,9.856,0,0,0-2.67-5.191v-.443a4.674,4.674,0,0,0-4.616-4.748,4.608,4.608,0,0,0-4.107,2.575,9.581,9.581,0,0,0-6.373,4.89,8.414,8.414,0,0,0-7.276-4.257,8.262,8.262,0,0,0-4.67,1.446,6.515,6.515,0,0,0-2.109-.191,6.943,6.943,0,0,0,.48,13.854Z" transform="translate(-447.339 -106.048)" opacity="0.7" fill="url(#linear-gradient-8)"/>
        </g>
        <path id="Tracé_47" data-name="Tracé 47" d="M183.535,109.879c-.3-2.277-3.188-4.909-4.257-6.148A66.019,66.019,0,0,1,174.6,97.62a58.684,58.684,0,0,1-3.677-6.83,4.2,4.2,0,0,0-.968-1.377c-.694-.581-1.5-.456-2.277-.7-2.277-.774-3.206-3.837-4.708-6.182-1.3-2.027-2.676-1.411-4.132-.421a19.809,19.809,0,0,0-4.554,4.155c-.991,1.229-1.912,3.105-3.347,2.857-2.095-.376-3.347-4.121-5.327-4.451-1.514-.25-2.721,1.514-3.928,2.63-.785.717-1.492,1.56-2.277,2.277-3.154,2.766-5.2,7.672-8.424,10.439S121,107.2,118.458,102.088c-.273-.569-.524-2.152-.774-2.436-.558-.649-2.186-.17-2.789-.091-1.594.227-2.914,1.275-4.429,1.719a6.512,6.512,0,0,1-5.043-1.082c-1.787-1.252-2.88-4.554-4.608-5.692-1.354-.911-4.178-.193-5.465.444-1.583.774-2.937,2.14-4.554,2.891a9.216,9.216,0,0,1-4.554.831,9.528,9.528,0,0,0-5.544,1.912c-1.458.991-2.744,2.573-4.2,3.552s-1.844,1.81-3.13,3.279-3.233-.581-5.02.114a16.12,16.12,0,0,0-5.236,3.928c-1.138,1.241-1.935,3.415-3.039,4.769a7.969,7.969,0,0,1-3.506,2.425,21.338,21.338,0,0,0-5.089,3.415l51.189,55.359,86.2-67.313Z" transform="translate(466.534 211.576)" fill="#d2e2ca"/>
        <path id="Tracé_48" data-name="Tracé 48" d="M688.908,59.787a8.7,8.7,0,0,1-1.946-1.332c-.683-.546-1.309-1.343-1.97-1.969-.9-.842-1.138-.694-2.1-1.263-.637-.365-1.3-1.912-1.935-2.277a5.4,5.4,0,0,0-2.664-.17,14.457,14.457,0,0,0-6.522.957,29.6,29.6,0,0,0-9.2,5.942c-1.753,1.8-3.415,3.825-5.225,5.533s-3.665,2.789-5.476,4.735c-2.14,2.277-4.417,4.554-6.625,6.626-2.653,2.527-5.567,3.939-8.151,6.637a46.129,46.129,0,0,1-7.57,6.057c-1.878,1.252-3.347,3.306-5.145,4.781-3.837,3.153-7.456,7.32-11.384,10.245-.273.216-.546.41-.831.6-1.957,1.343-3.836,2.948-5.771,4.383a48.124,48.124,0,0,1-5.168,2.755c-1.821,1.059-3.665,1.878-5.487,2.914s-3.335,2.732-5.066,3.882c-2.277,1.5-4.554,2.789-6.83,4.166a57,57,0,0,0-5.168,3.415c-6.341,4.792-13.558,4.474-20.4,5.61-3.306.558-6.683.444-9.881,1.878a66.035,66.035,0,0,0-8.128,4.826c-3.415,2.186-6.466,5.692-9.585,8.64a39.3,39.3,0,0,1-12.409,7.855c-1.138.5-2.766-1.889-3.807-2.6-2.084-1.469-3.733-3.916-5.692-5.885a30.222,30.222,0,0,1-3.529-4.553l-.4-.615c-.626-.979-1.628-2.96-2.481-3.415s-1.583,0-2.356-.25a11.382,11.382,0,0,1-2.038-1.411c-1.6-1.229-3.415-2.481-5.055-3.939a29.928,29.928,0,0,0-5.465-4.36c-1.571-.842-2.971-.49-4.554-.6s-3.105-1.833-4.554-3.279a17.823,17.823,0,0,1-1.81-2.653c-.546-.831-1.48-1.07-2.129-1.674-1.458-1.343-2.7-4-4.485-4.633s-3.415.41-4.838,1.366c-3.574,2.334-6.432,6.125-9.733,9.107-2.6,2.356-6.432,2.994-8.424,6.944-.877,1.753-.7,2.538-2.277,2.641a6.284,6.284,0,0,1-3.631-.9,9.7,9.7,0,0,1-3.165-2.641c-.512-.615-1.138-1.639-1.753-1.8-.979-.227-4.03,1.867-4.815,2.857-1.036,1.286-.831,1.867-2.436,1.514a10.073,10.073,0,0,1-3.1-1.685c-2.038-1.32-3.016-.2-5,0-1.639.17-2.905,1.138-4.2,2.835a26.559,26.559,0,0,1-2.732,2.982,30.736,30.736,0,0,0-5.692,6.341L438.2,194.426H689.386V59.81a.978.978,0,0,1-.478-.023Zm-440.255,101.5a32.31,32.31,0,0,0-4.064-3.073c-.478-.331-.957-.671-1.423-1.025a17.077,17.077,0,0,1-4.554-4.808c-.546-.853-1.138-1.7-1.651-2.55s-.842-1.753-1.263-2.459a16.145,16.145,0,0,0-3.233-3.188,51.227,51.227,0,0,1-3.95-3.916,34.926,34.926,0,0,0-2.664-3.313c-.728-.649-1.537-.968-2.277-1.651l-1.377-1.833a5.9,5.9,0,0,0-2.038-1.013,12.157,12.157,0,0,1-1.935-2.4c-1.821-2.778-3.962-5-6.579-3.688a7.639,7.639,0,0,0-3.415,2.812c-1.138,1.537-1.81,2.1-3.336,1.787-2.641-.558-4.315-4.451-6.739-5.309a5.441,5.441,0,0,0-3.267.25c-.831.365-1.5,1.776-2.368,2.277-2.2,1.138-4.941-.649-7.184.365-1.719.785-3.848,3.928-5.18,5.862a58.325,58.325,0,0,0-4.36,6.978,11.849,11.849,0,0,1-2.345,3.483c-1.492,1.4-3.734,1.844-5.465,2.345-2.891.831-5.236,2.664-7.914,4.383-3.677,2.368-7.172,5.35-10.819,7.844-.444.308-1.138.376-1.537.751-.922.808-1.048,1.958-1.81,2.96-1.138,1.492-2.481,2.721-3.654,4.268l-.569.728a72.928,72.928,0,0,1-13.717,13.8,21.217,21.217,0,0,0-4.873,4.372,23.569,23.569,0,0,1-2.857,3.734c-.9.762-1.889.922-2.812,1.6a41.5,41.5,0,0,0-3.347,3.306c-2.014,1.878-4.166,3.245-5.953,5.692a50.52,50.52,0,0,1-3.665,4.143c-1.435,1.6-2.7,3.415-4.007,5.2a27,27,0,0,1-2.39,2.549c-1.025,1.082-1.833,2.573-2.857,3.606-1.434,1.458-3.256,1.844-4.7,3.347s-3.358,2.413-4.826,4.155a7.479,7.479,0,0,1-3.662,2.714c-1.047.284-2.049-.057-3.085.3-.785.273-1.445,1.036-2.277,1.377a22.415,22.415,0,0,1-4.474,1.969c-.888.17-1.742-.227-2.641.08a19.078,19.078,0,0,0-3.062,1.912c-1.594,1.138-3.153,2.277-3.153,2.277l11.338,14.981,17.372,23.483,13.1,17.725,26.957-13.423,140.646-70.022C271.169,206.786,249.9,162.468,248.653,161.284Z" transform="translate(497.291 137.573)" fill="url(#linear-gradient-9)"/>
        <path id="Tracé_49" data-name="Tracé 49" d="M853.782,135.655V425.941H0V372.506l123.058-51,32.614-13.513h0l15.026-6.238,19.234-7.969,7.969-3.313h0l28.015-11.62h0l20.491-8.5,9.858-4.087,9.107-3.791a9.482,9.482,0,0,0,7.024-2.163c.991-.808,1.742-1.9,2.63-2.732l.273-.239h0a1.978,1.978,0,0,1,.308-.25,2.957,2.957,0,0,1,.512-.318h0a3.569,3.569,0,0,1,.683-.273,30.682,30.682,0,0,1,4.93-.876c1.98-.239,4.03-2.653,5.931-3.757a36.016,36.016,0,0,1,5.692-2.6c2.538-.934,5.225-2.277,7.753-.911,2.061,1.138,3.665,3.415,5.828,4.2a7.713,7.713,0,0,0,6.683-.433c2.63-1.594,5.157-4.2,7.627-6.261,2.095-1.742,4.257-3.313,6.341-5.077,2.356-2.015,4.041-4,6.683-5.191,3.95-1.8,7.559-5.862,10.769-9.756a191.973,191.973,0,0,1,13.444-15.311c1.651-1.594,3.472-2.789,5.1-4.417,2.095-2.095,3.78-5.145,5.635-7.684a72.941,72.941,0,0,1,6.4-7.613c3.222-3.336,6.569-5.521,9.3-9.9a29.6,29.6,0,0,1,3.814-5.032c1.377-1.411,2.538-3.256,3.928-4.554s2.687-2.778,4.075-4.087a15.156,15.156,0,0,0,1.935-2.39c.8-1.07,1.138-.945,2.095-1.435,3.814-1.98,5.225-7.377,7.969-11.475a.847.847,0,0,0,.08-.136,17.07,17.07,0,0,0,.991-1.7c.376-.7.74-1.411,1.138-2.072v-.082a8.423,8.423,0,0,1,.478-.751,6.83,6.83,0,0,1,1.549-1.674,10.488,10.488,0,0,1,2.277-1.047c.7-.319,1.2-1.241,1.776-1.571,2.47-1.377,4.69,1.036,6.887,2.014.979.433,1.867,1.013,2.789,1.32a11.805,11.805,0,0,0,3.95,0c1.366-.068,2.368-1.047,3.654-1.549a4.257,4.257,0,0,1,1.685-.193c.922,0,1.138-.353,1.81-.683,1.458-.671,1.742-.626,2.721-2.8a65.1,65.1,0,0,0,4.451-12.283,16.5,16.5,0,0,1,2.778-6.762,60.343,60.343,0,0,1,5.077-5.692,77.411,77.411,0,0,0,5.692-5.635c1.628-1.855,3.073-4.554,4.815-6.079a61.183,61.183,0,0,1,5.259-3.62c2.072-1.492,3.654-3.962,5.635-5.544s3.62-5.134,5.02-7.969c.866-1.742,1.867-3.7,2.823-5.282.762-1.263,1.753-2,2.549-3.206a4.087,4.087,0,0,1,2.766-2.174,7.36,7.36,0,0,0,1.423-.888c.239-.159.524.182.8,0s.569-1,.9-1.492c.456-.671,1-1.343,1.685-1.059l.25.08h.159c1.594.3,2.368-1.855,4.155-1.867,2.755,0,3.706.762,5.749,3.415a7.843,7.843,0,0,0,4.554,2.778c1.98.626,3.606,2.118,5.453,3.2,1.013.592,2.118.626,3.119,1.229.6.365,1.138,1.025,1.753,1.332,2.2,1.082,4.281,2.277,6.5,3.336,1.98.945,3.928,1.98,5.919,2.926.819.4,1.548,1.218,2.345,1.594,1.059.49,2.2.308,3.279.785,1.7.762,3.188,2.277,4.895,3.1a32.79,32.79,0,0,1,5.533,2.8c2.186,1.594,4.747,1.377,4.7,5.692,0,3.415,0,5.35,1.946,7.365s3.175,3.415,5.327,4.087c2.573.8,5.35,4.735,7.343,7.195,1.252,1.549,1.8,3.062,3.29,4.383A29.286,29.286,0,0,0,573.013,130a24.424,24.424,0,0,0,5.089,2.084c.649.227,1.3.444,1.935.7,2.39.968,5.236-.626,7.536.6,1.594.842,2.846,3.005,4.207,4.5a14.551,14.551,0,0,0,3.347,2.6c1.537.979,3.336.934,4.656,2.277a15.057,15.057,0,0,0,1.388,1.571c.273.2.74.1.991.365.911.911,1.492,2.425,2.515,3.324.433.376,1.07.524,1.435,1.013s.49,1.309.865,1.912a10.837,10.837,0,0,0,2.585,2.926c1.2.751,2.562.922,3.791,1.685,1.992,1.229,3.415,3.245,5.1,5.066,2,2.1,3.677,3.734,6.193,3.893,2.174.136,3.791,0,5.862,1.252a20.34,20.34,0,0,0,5.862,2.39c1.229.331,2.368.991,3.676.7a3.413,3.413,0,0,0,.842-.307,27.151,27.151,0,0,0,2.766-1.787,28.457,28.457,0,0,1,4.207-2.721,15.721,15.721,0,0,0,4.257-3.267c1.366-1.275,2.88-1.719,4.268-2.869a12.59,12.59,0,0,0,3.028-4.268c.762-1.537,1.7-2.835,2.481-4.349.342-.694.467-1.469.842-2.163.524-.991,1.343-1.6,1.889-2.6.9-1.628,1.3-3.677,2.334-5.109l.66-.888.592-.785a14.294,14.294,0,0,0,1.252-1.98c.08-.148.159-.319.239-.478s.285-.66.41-1.025c.068-.193.136-.387.193-.592a37.385,37.385,0,0,1,6.352-11.645c.991-1.252,1.549-2.971,2.493-4.234A37.578,37.578,0,0,1,682.1,115a41.184,41.184,0,0,1,5.055-4.758,9.552,9.552,0,0,0,3.415-5.316c.728-2.6.83-5.692,1.923-7.969.843-1.833,1.7-3.415,2.515-5.339a41.086,41.086,0,0,1,2.287-4.693c.376-.592.843-.637,1.229-1.286a20.479,20.479,0,0,0,.9-3.016c.66-2.027,1.138-3.848,1.889-5.692,1.537-3.563,2.118-7.513,3.768-10.951a47.514,47.514,0,0,1,2.835-4.769c.979-1.6,1.7-3.415,2.96-4.554a3.654,3.654,0,0,1,.467-.387,4.746,4.746,0,0,1,.512-.365l.318-.182a3.88,3.88,0,0,1,.546-.25c3.016-1.138,6,1.218,8.89,3.154a121.208,121.208,0,0,1,11.145,8.708c4.223,3.62,8.754,6.3,11.987,12.112,1.56,2.789,2.869,6.612,4.808,8.777,2.515,2.812,5.692,3.028,8.606,3.631C763.923,93,770.184,93,775.557,96.81c.535.376,1.059.762,1.56,1.138,2.334,1.821,4.429,3.928,6.712,6.034,2.538,2.277,4.769,5.168,7.32,7.4a58.3,58.3,0,0,0,8.88,6.967c1.138.649,2.277,1.332,3.415,1.946,1.388.751,3.6,1.013,4.735,2.561a19.579,19.579,0,0,0,5.089,4.808c2.277,1.548,4.349.831,6.739,1.343,2.072.444,3.529,2.277,5.418,3.279,1.32.671,3.13.091,4.554.125,4.554.091,8.356-5.157,13.046-2.812a65.239,65.239,0,0,1,6.311,3.871,29.685,29.685,0,0,0,4.451,2.186Z" transform="translate(332.895 144.055)" fill="url(#linear-gradient-10)"/>
        <path id="Tracé_50" data-name="Tracé 50" d="M48.065,294.73c4.895,30.736,34.846,51.842,65.081,59.036s61.859,4.053,92.868,6.147c32.079,2.163,66.674,9.483,94.644-6.363,18.032-10.245,29.852-28.391,40.982-45.888,9.79-15.38-62.816-39.286-59.5-57.124,2.481-13.4,38.932-18.373,48.951-20.836,14.425-3.529,81.743-12.522,81.565-30.736,0-3.415-1.924-6.523-3.746-9.416q-15.2-24.224-30.406-48.45c-4.326-6.9-8.777-14.15-9.483-22.267s3.677-17.292,11.6-19.182c6.626-1.571,17.246-.74,16.677-7.513-.17-2.049-1.639-3.706-3.039-5.209L369.5,60.37a1.663,1.663,0,0,1-.41-.125c-.683-.273-1.229.387-1.685,1.07a8.482,8.482,0,0,1-.9,1.492c-.387.353-.558-.136-.8,0a7.966,7.966,0,0,1-1.422.888,4.087,4.087,0,0,0-2.766,2.174c-.8,1.138-1.787,1.946-2.55,3.206-.957,1.583-1.958,3.54-2.823,5.282-1.4,2.8-2.937,6.261-5.021,7.969s-3.563,4.053-5.635,5.556c-1.753,1.263-3.552,2.14-5.259,3.62s-3.188,4.223-4.815,6.068a75.347,75.347,0,0,1-5.692,5.692,60.324,60.324,0,0,0-5.077,5.692,16.494,16.494,0,0,0-2.778,6.762A65.092,65.092,0,0,1,317.41,128c-.979,2.175-1.263,2.118-2.721,2.8-.694.331-.887.683-1.81.683a4.256,4.256,0,0,0-1.685.193c-1.286.49-2.277,1.48-3.642,1.549a12.18,12.18,0,0,1-3.962,0c-.922-.308-1.81-.888-2.789-1.32-2.2-.991-4.417-3.415-6.887-2.015-.581.331-1.07,1.252-1.776,1.571a10.486,10.486,0,0,0-2.277,1.048c-1.935,1.423-2.789,4.2-4.269,6.411-2.732,4.1-4.143,9.494-7.969,11.475-.945.478-1.3.353-2.095,1.435a15.154,15.154,0,0,1-1.935,2.39c-1.388,1.309-2.687,2.778-4.064,4.087s-2.561,3.177-3.939,4.554a30.17,30.17,0,0,0-3.814,5.043c-2.732,4.383-6.079,6.569-9.3,9.9a71.773,71.773,0,0,0-6.4,7.613c-1.855,2.538-3.54,5.59-5.635,7.684-1.628,1.628-3.415,2.823-5.1,4.417a191.946,191.946,0,0,0-13.437,15.312c-3.206,3.893-6.83,7.969-10.769,9.756-2.641,1.2-4.326,3.177-6.683,5.191-2.084,1.764-4.246,3.336-6.341,5.077-2.47,2.061-5,4.667-7.627,6.261a7.713,7.713,0,0,1-6.683.433c-2.163-.831-3.768-3.105-5.828-4.2-2.527-1.332-5.209,0-7.753.911a36.016,36.016,0,0,0-5.692,2.6c-1.9,1.138-3.95,3.517-5.931,3.746a32,32,0,0,0-4.93.888c-1.878.524-2.857,2.538-4.44,3.837a9.529,9.529,0,0,1-7.023,2.163L47.484,288.769a50.6,50.6,0,0,0,.581,5.96Z" transform="translate(456.167 157.046)" opacity="0.21" fill="url(#linear-gradient-11)"/>
        <path id="Tracé_51" data-name="Tracé 51" d="M159.948,263.283a5.942,5.942,0,0,0-.842,5.109c3.13-.819,4-3.837,6.443-5.453a54.42,54.42,0,0,1,7.593-3.574c2.982-1.263,3.928-1.025,6.411-3.928,5.84-6.83,5.817-17.076,16.393-19.262,1.969-.4,4.053-.387,5.9-1.138,10.118-4.383,12.9-14.926,19.546-22.46,8.937-10.118,20.924-16.7,31.681-24.634,21.337-15.709,39.445-50.863,67.46-53.618,17.371-1.7,35.688,2.175,51.9-4.326q-21.629-7.969-43.259-16.006c-16.609-6.17-20.582-8.162-23.519-25.671-1.617-9.654-2.948-23.086-5.089-33.1a5.8,5.8,0,0,0-1.844,1.138c-1.263,1.138-1.981,2.926-2.96,4.554a49.055,49.055,0,0,0-2.835,4.781c-1.651,3.415-2.277,7.377-3.767,10.951-.8,1.878-1.229,3.7-1.889,5.692a20.251,20.251,0,0,1-.9,3.028c-.387.649-.854.694-1.229,1.286a41.059,41.059,0,0,0-2.277,4.7c-.819,1.878-1.673,3.506-2.515,5.339-1.138,2.356-1.138,5.4-1.923,7.969A9.55,9.55,0,0,1,275,109.977a41.206,41.206,0,0,0-5.055,4.758A39.687,39.687,0,0,0,267,117.513c-.945,1.275-1.5,2.994-2.493,4.246a37.384,37.384,0,0,0-6.42,11.679,17.166,17.166,0,0,1-3.347,5.692c-1.036,1.423-1.435,3.483-2.334,5.109-.546,1-1.366,1.617-1.889,2.6-.376.7-.5,1.48-.842,2.175-.774,1.514-1.719,2.812-2.481,4.338a12.521,12.521,0,0,1-3.028,4.281c-1.388,1.138-2.905,1.594-4.269,2.869a15.448,15.448,0,0,1-4.257,3.256,28.574,28.574,0,0,0-4.207,2.732,27.166,27.166,0,0,1-2.766,1.787c-4.451,6.762-9.028,13.456-13.752,20.024-1.4,1.958-2.721,3.984-4.053,5.987-8.458,12.659-16.86,25.363-25.568,37.851-4.554,6.466-9.107,12.91-13.888,19.147a32.037,32.037,0,0,1-6.83,6.751,18.385,18.385,0,0,0-4.628,5.251Z" transform="translate(745.311 144.164)" opacity="0.4" fill="url(#linear-gradient-12)"/>
        <path id="Tracé_52" data-name="Tracé 52" d="M475.613,454.226H0V45.011a3.415,3.415,0,0,0,.888.558c2,.694,4.554.114,6.626,0a11.644,11.644,0,0,0,2.6-.671,7.967,7.967,0,0,1,3.028-.615h.193a3.166,3.166,0,0,1,.569.125,3.1,3.1,0,0,1,.66.3,3.917,3.917,0,0,1,.934.8c1.263,1.446,2.857,2.47,3.962,4.349A81.085,81.085,0,0,1,23.362,58.9c1.138,2.653,1.776,4.633,3.347,6.3a44.306,44.306,0,0,1,5.168,7.866c2.755,4.808,5.236,13.171,8.845,15.357,1.583.945,2.926.49,4.554.762,2.175.365,4.429.842,6.592,1.366a96.921,96.921,0,0,1,9.767,3.336c2.55.934,5.409,1.753,7.684,4.1,4.308,4.44,9.96,5.6,13.661,12.271,1.855,3.415,4,5.556,6.045,8.538a83.655,83.655,0,0,1,5.157,8.959c2.641,5.1,3.882,11.11,5.91,17.076,4.485,13.114,25.773,19.09,38.876,23.269,8.367,2.653,12.431,3.631,17.292,11.259,9.892,15.505,18.3,31.168,31.875,44.693l.968.934.979.9c.331.3.671.6,1.013.876s.671.581,1.013.853c1.9,1.594,3.871,3.073,5.817,4.554l1.889,1.435.774.592,1.3,1.048h0c.512.421,1.025.842,1.526,1.275s1.013.877,1.514,1.332l1.81,1.7q2.7,2.585,5.191,5.191c.558.569,1.138,1.138,1.662,1.753l.683.728,1.685,1.833c.785.853,1.56,1.719,2.277,2.572l4.554,5.1,3.415,3.723c.842.922,1.7,1.855,2.573,2.766.683.728,1.377,1.446,2.072,2.152l.114.114,1.6,1.6q.671.671,1.332,1.3c1.138,1.07,2.277,2.118,3.415,3.119.308.285.626.558.957.831s.524.456.785.671l1.229,1.025q1.492,1.2,3.039,2.356c.456.342.922.683,1.4,1.013l.1.08.535.376c.227.159.456.319.694.467,1.662,1.138,3.415,2.2,5.18,3.206l1,.546a3.561,3.561,0,0,0,.41.216c.444.25.9.49,1.354.7l1.423.717c1.583.751,3.177,1.548,4.781,2.368q3.606,1.827,7.252,3.837c.808.433,1.617.887,2.425,1.343.49.284.991.558,1.48.853.751.41,1.5.853,2.277,1.3s1.742,1.013,2.619,1.537l2.538,1.537,2.55,1.56,2.527,1.594c4.223,2.664,8.415,5.465,12.522,8.322l.524.376q2.118,1.492,4.2,2.982a327.16,327.16,0,0,1,27.97,22.528c.979.887,1.946,1.764,2.926,2.63l4.234,3.757,3.529,3.1,3.631,3.141,4.394,3.807,2.664,2.277h0c2.4,2.084,4.808,4.155,7.184,6.238l1.776,1.56c3.95,3.415,7.878,7,11.76,10.644.6.558,1.2,1.138,1.8,1.685s1.2,1.138,1.8,1.719c.9.853,1.8,1.73,2.687,2.6s1.787,1.753,2.676,2.641q2.664,2.687,5.293,5.465,2.39,2.527,4.838,4.93c.5.49.991.968,1.5,1.446l1.082,1.013c.546.535,1.138,1.059,1.685,1.571l1.138,1.07h.057c2.7,2.459,5.453,4.808,8.241,7.08,1,.819,2,1.628,3.016,2.425C429.315,422.256,453.593,435.534,475.613,454.226Z" transform="translate(332.895 115.77)" fill="#1a6357"/>
        <path id="Tracé_53" data-name="Tracé 53" d="M378.136,385.143c-18.009-19.09-37.293-33.991-56.361-51.284-20.491-18.6-48.267-37.966-73.642-50.146-22.176-10.644-32.739-29.541-50.488-45.865-5.225-4.808-11.543-8.561-16.829-13.831-13.57-13.524-21.982-29.188-31.875-44.693-4.861-7.638-8.925-8.606-17.292-11.27-13.1-4.166-34.39-10.143-38.83-23.269-2.027-5.91-3.267-11.921-5.91-17.076a81.768,81.768,0,0,0-5.157-8.959c-2.049-2.982-4.189-5.145-6.045-8.538-3.7-6.579-9.357-7.713-13.624-12.2-2.277-2.356-5.134-3.177-7.684-4.107a94.175,94.175,0,0,0-9.767-3.336c-2.163-.524-4.417-1-6.592-1.366-1.673-.273-3.016.193-4.554-.774C29.88,86.251,27.4,77.885,24.641,73.082a44.716,44.716,0,0,0-5.209-7.889c-1.571-1.662-2.277-3.631-3.347-6.3a81.085,81.085,0,0,0-3.907-9.039c-1.138-1.878-2.7-2.905-3.962-4.349-1.6-1.844-3.517-1.252-5.384-.615C12.007,57.588,22.013,69.45,14.051,85.24,4.3,104.593,17.091,111.9,33.4,124.709c17.224,13.49,36.314,24.031,54.5,36.2a21.994,21.994,0,0,1,6.057,5.942,57.056,57.056,0,0,0,16.586,16.006c3.415,2.084,7.536,3.256,10.871,5.373,5.316,3.358,7.012,9.617,9.7,14.674,1.138,2.186,2.653,3.859,3.222,6.284.4,1.7.125,2.835,1.138,4.554,2.277,4.1,7.331,7.012,11.6,8.993,4.554,2.084,8.207,3.415,11.532,7.035,2.835,3.119,2.447,5.465,2.721,9.368.671,9.676,10.619,18.1,15.846,25.9,6.83,10.143,10.518,21.437,18.988,30.736,19.546,21.424,44.556,34.322,68.894,50.087,29.276,18.985,59.455,34.673,93.355,45.164,7.764,2.4,25.83,10.359,38.295,11.22a193.707,193.707,0,0,1-18.566-17.11Z" transform="translate(340.247 115.742)" opacity="0.4" fill="url(#linear-gradient-13)"/>
        <path id="Tracé_54" data-name="Tracé 54" d="M653.464,84.364v265.81H77.162c3.005-3.586,6.057-7.058,9.232-10.325,1.764-1.833,3.574-3.606,5.43-5.293,14.856-13.536,31.875-23.246,46.674-36.664q3.5-3.156,6.83-6.648c3.415-3.574,6.626-7.638,9.917-11.76,3.073-3.871,6.193-7.787,9.46-11.384a82.163,82.163,0,0,1,6.284-6.311c.728-.637,1.458-1.263,2.2-1.855a79.683,79.683,0,0,1,16.328-9.983c18.1-8.4,37.452-10.518,55.4-20.013l6.694-3.529c17.77-9.323,35.642-18.419,53.31-27.97,15.117-8.173,32.307-24.343,49.679-19.489,20.491,5.692,41.095-3.105,61.107-7.969,9.949-2.436,20.115-4.964,28.71-10.792,4.872-3.306,9.107-7.581,14.139-10.644,5.692-3.5,12.283-5.236,18.555-7.513,20.149-7.3,34.971-24.965,54.734-29.894a42.976,42.976,0,0,1,17.952-.649,29.589,29.589,0,0,0,4.964.649,9.468,9.468,0,0,0,1.275-.08c4.735-.626,8.23-4.941,12.636-6.83,6.182-2.687,13.285-.376,19.865-1.571,8.39-1.514,14.8-8.367,21.47-14.025a15.812,15.812,0,0,1,5.4-3.415c10.5-3.177,19.682,5.476,31.374.342a56.263,56.263,0,0,1,6.694-2.2Z" transform="translate(533.212 219.822)" fill="#1a6357"/>
        <path id="Tracé_55" data-name="Tracé 55" d="M312.094,290.434c-.751-1.844-7.49-4.007-8.367-5.692a6.272,6.272,0,0,0-.842-1.138,7.308,7.308,0,0,1-.9-1.252,12.6,12.6,0,0,0-1.138-2.493,13.023,13.023,0,0,0-2.277-1.571,16.286,16.286,0,0,0-2.356-1.685,116.26,116.26,0,0,0-13.137-5.919c-1.548-.626-3.085-1.366-4.554-2.027-1.332-.569-1.946-1.594-3.1-2.687-2-1.912-3.734-4.223-5.862-5.862-1.138-.877-2.277-1.56-3.415-2.277-.934-.592-1.935-1.526-2.835-2.072s-1.469-.683-2.277-1.138c-1.32-.877-2.515-.546-3.848-1a30.556,30.556,0,0,1-2.926-1.469,20.2,20.2,0,0,0-2.527-.774,13.057,13.057,0,0,1-4.075-2.653,14.9,14.9,0,0,1-1.138-1.4,29.971,29.971,0,0,0-1.9-2.334,38.877,38.877,0,0,0-4.349-3.245,31.738,31.738,0,0,0-5.35-3.415c-4.554-2.277-9.107-4.554-13.194-8.275a37.019,37.019,0,0,1-4.633-4.7c-.934-1.2-1.7-2.687-2.641-3.871-3.483-4.36-6.9-8.288-11.119-11.053-3.028-2-6.363-3.807-9.506-5.476-3.825-2.05-7.581-4.087-11.452-5.931l-1.138-.535h0c-3.141-1.548-6.352-3.347-9.38-5.191-3.472-2.1-6.579-5.316-9.79-8.173a77.228,77.228,0,0,0-7.832-6.545c-2.948-1.992-6.068-3.256-9.039-5.1-2.447-1.5-4.808-3.415-7.3-4.758-1.685-.911-3.506-1.138-5.191-2.061a15.506,15.506,0,0,1-4.644-4.394c-.74-1.025-1.07-2.277-1.776-3.358-.456-.66-1.138-.968-1.6-1.583a16.864,16.864,0,0,0-1.764-2.459,18.064,18.064,0,0,1-1.753-1.639c-1.138-1.4-1.7-3.415-2.7-4.918-1.469-2.277-4.03-3.907-5.794-5.692a46.687,46.687,0,0,1-4.246-4.895c-1.138-1.5-1.855-3.506-2.891-5.134-1.492-2.345-3.051-3.016-5.043-4.326a57.138,57.138,0,0,0-6.261-3.005c-1.138-.558-1.844-1.7-2.905-2.334a14.1,14.1,0,0,1-2.175-.957,21.336,21.336,0,0,0-2.186-2.118c-.524-.331-1.138-.444-1.7-.751a11.6,11.6,0,0,1-3.415-2.812c-2.96-3.746-6.411-6.318-9.585-9.688a20.285,20.285,0,0,0-4.769-3.415,10.086,10.086,0,0,1-3.939-3.893,7.479,7.479,0,0,0-2.721-3.415,25.044,25.044,0,0,0-7.4-3.734c-1.571-.512-3.893-1.275-5.209-2.846-.774-.922-.785-2.39-1.6-3.306-2.277-2.481-5.851-1.411-8.458-1.411a25.284,25.284,0,0,1-3.939,0c-1.411-.216-2.163-1.422-3.415-2.277a77.743,77.743,0,0,0-11.736-6.227c-1.7-.751-3.313-1.776-5.032-2.47s-3.028-.558-4.554-2.027c-1.138-1.138-2.277-2.561-3.358-3.529s-1.446-.068-2.778.08A17.075,17.075,0,0,0,0,68.912V295.358H314.929C314.054,293.618,312.868,292.366,312.094,290.434ZM852.322,142.34a55.414,55.414,0,0,0-10.667,5.168c-2.994,1.81-5.35,5.134-8.214,7.274-2.5,1.878-5.293,3.039-7.889,4.7s-5.476,4.554-8.447,4.608h-3.879c-1.9-.057-4.189,1.674-5.692,3.347-1.753,1.889-2.937,3.706-5.089,4.667-2.562,1.138-4.417,3.62-6.762,5.476a18.9,18.9,0,0,0-3.2,4.223,12.806,12.806,0,0,1-2.493,2.7,31.145,31.145,0,0,1-4,3.2,13.141,13.141,0,0,1-2.584.8c-1.013.376-1.787,1.332-2.835,1.651a21.122,21.122,0,0,0-5.35,2.653c-1.673,1.025-3.606,1.275-5.35,2.027a104.605,104.605,0,0,0-10.5,5.91,48.432,48.432,0,0,1-6.443,3.415,13.442,13.442,0,0,1-5.123.444c-4.36,0-8.595-1.458-12.955-.444-4.758,1.138-9.107,4-13.547,6.341-4.143,2.14-7.753,6.363-11.691,9.164-4.451,3.165-9.9,1.492-14.708,2.47a19.15,19.15,0,0,1-4.268.148c-2.356,0-3.734.785-5.692,2.641a68.658,68.658,0,0,1-9.6,8.094c-1.32.888-2.641,1.821-3.939,2.778a26.8,26.8,0,0,1-7.5,4.246c-4.408,1.469-8.686,3.563-13.069,5.191a43.449,43.449,0,0,1-6.511,1.935c-5.544,1.138-11.168.216-16.757,1.469-7.012,1.571-12.923,6.386-19.5,9.892-4.849,2.6-10.086,1.764-15.185,1.764-3.825,0-7.729-.376-11.52.433-7.413,1.6-13.513,7.8-20.786,10.166-5.692,1.833-10.177,7.525-15.527,10.484-2.778,1.537-5.055,3.973-7.714,5.692-2.277,1.492-4.633,2.619-6.933,3.962a59.28,59.28,0,0,1-5.209,3.279c-1.549.683-3.164.5-4.758.991-5.293,1.571-10.633,4.257-15.79,6.6-4.417,2-8.833,3.415-13.262,5.145a44.186,44.186,0,0,1-4.291,1.537,28.39,28.39,0,0,1-8.8,1.445h-9.016a54.405,54.405,0,0,0-16.586,2.96c-3.62,1.138-7.286,2.436-11,2.334a12.767,12.767,0,0,1-3.105-.421c-7.195-1.889-14.969.421-21.686,4.417-2.277,1.332-4.383,3.677-6.83,4.143-2.869.558-5.692-.671-8.515.9a24.887,24.887,0,0,1-5.692,2.527h0a2.163,2.163,0,0,1-.387.114,16.817,16.817,0,0,0-3.1.819c-1.549.74-2.891,2.277-4.463,3.12a1.477,1.477,0,0,1-.353.182l-18.727,9.574h0l-82.111,41.983-21.482,11H853.789V141.8C853.3,142,852.811,142.168,852.322,142.34Z" transform="translate(332.886 176.315)" fill="url(#linear-gradient-14)"/>
        <path id="Tracé_56" data-name="Tracé 56" d="M205.37,234.59a15.939,15.939,0,0,1-3.529.091c-6.774-.136-13.558,0-20.321.091q-4.986.068-9.938,0c-5.309-.1-10.586-.376-15.846-.785h0a219.32,219.32,0,0,1-53.766-10.951c-17.508-6-34.389-15.754-53.041-18.214-12.647-1.662-25.351-3.119-37.566-6.944C7.657,196.74,3.816,195.807-.02,194.8V86.351A111.043,111.043,0,0,0,9.8,93.238a78.82,78.82,0,0,0,7.613,3.415,21.116,21.116,0,0,1,6.712,4.326c1.526,1.514,3.2,2.334,4.383,4.189,2.277,3.654,4.28,5.828,8.47,7.456,2.277.854,3.962,2.345,5.953,3.563,1.7,1.025,3.723,1.56,5.373,2.641a46.194,46.194,0,0,1,10.018,9.79c5.692,7.4,9.983,17.69,19.466,21.253,4.007,1.5,7.889,3.95,11.771,5.794,3.039,1.446,6.454,3.415,9.8,3.665,4.873.3,9.107,2.812,13.661,4.349,4.018,1.332,6.912,4.554,10.118,7.149,2.812,2.277,4.018,6.5,6.967,8.23,1.662.957,3.306.934,4.86,2.277s2.7,3.529,4.554,4.554c1.309.717,3.188.808,4.554,1.275a26.786,26.786,0,0,0,5.692,1.673c1.855.17,3.306-.068,5.1.762,2.277,1.048,3.95,2.994,6.022,4.326,4.554,2.88,8.322,6.568,13.069,9.107,2.425,1.309,3.723,3.563,5.81,5.465a43.555,43.555,0,0,1,5.692,7.035,27.412,27.412,0,0,0,4.429,5.066,13.7,13.7,0,0,0,1.082.854c2.869,2.061,5.9,3.586,8.39,6.1C201.18,229.263,204.96,232.166,205.37,234.59Z" transform="translate(332.843 224.983)" fill="url(#linear-gradient-15)"/>
        <path id="Tracé_57" data-name="Tracé 57" d="M456.434,114.791v156.39H169.564c-.308-.535-.6-1.07-.887-1.617-3.5-6.626-5.624-14.15-7.65-21.3-3.188-11.27-6.17-22.608-7.969-25.044a89.294,89.294,0,0,1,26.251,2.072c5.18,1.286,10.45,1.4,15.767,1.9a132.566,132.566,0,0,0,30.338-.284c4.281-.558,8.481-.626,12.715-1.309l.853-.136c3.016-.535,6.148-.421,9.2-.9s5.544-1.787,8.424-2.982c7.969-3.313,15.846-7.413,24.236-9.8a68.487,68.487,0,0,0,7.023-2.152c3.529-1.388,6.83-3.2,10.518-4.178,5.624-1.514,11.821-.592,17.622-.694a40.178,40.178,0,0,0,7.7-1.138c2.527-.581,4.952-2.05,7.445-2.812,2.038-.626,4.349-.853,6.284-1.821s3.529-2.63,5.828-3.324c2.095-.615,4.36-.649,6.42-1.32,3.707-1.2,5.862-4.769,8.982-6.912,3.907-2.676,6.159-6.136,8.846-10.052a110.413,110.413,0,0,0,7.969-12.622c2.481-4.952,8.037-11.976,13.74-13.5,1.924-.524,3.6-.148,5.59-.888s3.746-2.118,6.057-2.277a25.413,25.413,0,0,0,3.707.1c1.548-.342,1.844-1,3.141-1.81,1.514-.968,3.358-1.435,4.884-2.39,2.038-1.263,3.313-2.515,5.9-2.755s3.039.7,4.075,2.88a16.415,16.415,0,0,1,1.787,5.27c.239,1.8-.25,2.721.853,4.417,1.332,2.027,3.984,3.1,5.692,4.826,1.138,1.2,3.1,3.2,5.168,2.277,1.8-.831.626-3.165.853-4.895.569-4.308,2.277-7.855,3.2-11.771a59.572,59.572,0,0,1,1.958-5.783c1.354-3.837,2.049-8.663,4.656-11.908,1.651-2.049,3.642-3.529,5.123-5.692C453.11,118.978,454.51,116.26,456.434,114.791Z" transform="translate(730.242 298.815)" fill="url(#linear-gradient-16)"/>
        <path id="Tracé_58" data-name="Tracé 58" d="M794.757,287.75c-5.692-1.56-11.384-3.073-17.076-4.667-4.018-1.138-6.989-3.95-10.94-5.225a33.013,33.013,0,0,0-7.3-1.138,15.832,15.832,0,0,1-6.432-1.7c-2.7-1.469-4.872-3.746-7.377-5.51a43.008,43.008,0,0,0-24.453-7.593c-8.708,0-17.417-.068-26.126,0a45.286,45.286,0,0,1-17.076-2.812,70.192,70.192,0,0,0-15.38-3.768c-3.483-.353-7.035.8-10.484-.193A64.6,64.6,0,0,1,645.2,252.2c-5.692-2.527-11.566-4.656-17.565-6.944-8.4-3.188-17.474-3.222-25.739-6.751-7.787-3.336-15.937-2.493-24.328-2.493-5.191,0-11.566,1.013-16.643-.136-4.2-.945-8.333-2.277-12.715-2.891-3.279-.5-5.533-.478-8.731-1.7S533,229,529.693,228.048c-5.2-1.583-9.574-1.583-14.969-1.583-3.7,0-8.241.717-11.874.091-4.622-.808-9.824-2.857-14.287-4.429-9.79-3.415-19.648-8.5-30.052-9.824-4.941-.637-9.881-1.685-14.8-1.7s-9.346-1.673-14.366-1.628c-5.567,0-11.532.547-17.076-.136-6.545-.819-13.752-.831-20.115-2.39-6.683-1.639-12.852-2.971-19.819-2.334-4.964.456-8.971,2.368-14.093,1.354a173.18,173.18,0,0,1-17.6-4.315c-5.9-1.844-10.041-6.386-15.126-9.676-11.566-7.49-26.707-6.774-39.9-9.688-6.523-1.445-12.852-4.338-19.353-5.885-7.012-1.673-14.036-3.028-20.9-5.521-8.356-3.028-17.269-5.692-25.044-10.041-6.386-3.606-13.956-2.277-21.174-2.277-8.2,0-17.269,1.138-25.374.08-5.76-.74-11.554-1.992-17.36-2.914-4.554-.728-8.959,0-13.41-1.286-3.256-.957-6.136-1.73-9.449-2.39-8.856-1.753-16.859-6.83-25.42-9.4-10.075-2.994-19.421-7.969-29.8-9.983-7.6-1.5-14.8-4.207-22.267-6.363-5.533-1.6-10.871-4.608-16.37-5.749-5.282-1.138-9.847-3.631-15.026-4.815A173.907,173.907,0,0,1,0,107.738V289.491H799.948C798.115,288.831,796.339,288.182,794.757,287.75Z" transform="translate(332.895 280.505)" fill="#021e22"/>
      </g>
    </g>
  </g>
</svg>
